<?xml version="1.0" standalone="no"?>
<!DOCTYPE svg PUBLIC "-//W3C//DTD SVG 20010904//EN"
 "http://www.w3.org/TR/2001/REC-SVG-20010904/DTD/svg10.dtd">
<svg version="1.0" xmlns="http://www.w3.org/2000/svg"
 width="400.000000pt" height="400.000000pt" viewBox="0 0 400.000000 400.000000"
 preserveAspectRatio="xMidYMid meet">
<metadata>
Created by potrace 1.16, written by Peter Selinger 2001-2019
</metadata>
<g transform="translate(0.000000,400.000000) scale(0.100000,-0.100000)"
fill="#000000" stroke="none">
<path d="M0 2000 l0 -2000 2000 0 2000 0 0 2000 0 2000 -2000 0 -2000 0 0
-2000z m2118 738 l62 32 0 -60 c0 -33 -3 -59 -7 -59 -5 1 -15 1 -23 0 -13 -1
-13 -2 0 -11 12 -8 8 -10 -15 -11 -24 -1 -25 -3 -7 -6 25 -5 30 -23 7 -23 -9
0 -18 -7 -21 -15 -4 -8 -14 -15 -24 -15 -9 0 -68 -12 -131 -26 -63 -14 -124
-28 -136 -31 -23 -5 -23 -4 -23 86 l0 91 44 -6 44 -6 27 53 c44 86 42 86 95
27 l46 -52 62 32z m-156 -275 l-27 -28 58 -3 58 -3 -3 -142 -3 -142 -37 -3
-38 -3 0 57 0 57 -42 -6 c-49 -7 -88 -43 -88 -83 0 -26 -2 -27 -49 -18 l-31 7
0 71 c0 52 6 83 20 111 11 22 20 56 20 77 0 35 2 38 43 48 23 6 53 15 67 20
14 5 37 9 52 9 l27 1 -27 -27z m-852 -73 l0 -40 -50 0 -50 0 0 -65 0 -65 50 0
50 0 0 -35 0 -35 -140 0 -140 0 0 35 0 35 50 0 50 0 0 65 0 65 -50 0 -50 0 0
40 0 40 140 0 140 0 0 -40z m100 -25 c0 -114 32 -145 145 -145 l65 0 0 -35 0
-35 -84 0 c-70 0 -88 4 -117 23 -62 42 -79 79 -79 173 l0 84 35 0 35 0 0 -65z
m320 1 l0 -64 38 14 c20 7 49 13 65 14 26 0 27 2 27 50 l0 50 35 0 c19 0 35
-3 36 -7 0 -12 1 -236 0 -255 -1 -14 -10 -18 -36 -18 l-35 0 0 50 0 50 -34 0
c-43 0 -96 -42 -96 -76 0 -21 -4 -24 -40 -24 l-40 0 0 140 0 140 40 0 40 0 0
-64z m920 42 c70 -36 90 -74 90 -174 l0 -84 -140 0 -140 0 0 140 0 140 73 0
c56 0 83 -5 117 -22z m410 -118 l0 -140 -40 0 -40 0 0 50 0 50 -34 0 c-43 0
-96 -42 -96 -75 0 -17 -7 -24 -28 -27 -48 -7 -52 -1 -52 76 0 143 65 206 212
206 l78 0 0 -140z m310 100 l0 -40 -105 0 c-63 0 -105 -4 -105 -10 0 -5 10
-10 23 -10 81 0 169 -65 182 -133 4 -21 5 -40 2 -43 -4 -4 -121 -6 -249 -5
-36 1 -37 2 -35 36 l2 35 90 0 c81 1 88 2 71 15 -11 8 -39 15 -61 15 -58 0
-95 34 -95 88 0 74 32 91 173 92 l107 0 0 -40z m-2370 -339 l0 -70 -32 -3 -33
-3 -3 -159 c-1 -88 1 -163 5 -166 5 -4 46 0 93 9 l85 17 3 52 c2 32 8 52 15
52 7 0 29 3 50 6 l37 7 0 -114 0 -114 -87 -18 c-80 -17 -304 -70 -345 -83 -16
-5 -18 3 -18 70 l0 74 30 7 30 7 -2 176 -3 177 -27 -3 -28 -3 0 76 0 75 115 0
115 0 0 -69z m700 16 l0 -54 -107 -6 c-58 -4 -135 -7 -170 -7 l-63 0 0 -71 0
-70 28 19 c42 30 117 52 178 52 l55 0 -3 -57 -3 -58 -66 -6 c-69 -6 -130 -34
-149 -70 -9 -15 -7 -19 7 -19 17 0 146 13 246 25 l48 6 -3 -58 -3 -58 -100
-12 c-113 -13 -301 -42 -327 -49 -17 -5 -18 13 -18 270 l0 276 225 0 225 0 0
-53z m265 -95 l110 -147 3 148 3 147 54 0 55 0 1 -207 c1 -118 5 -195 9 -178
4 17 8 110 9 208 l1 179 128 -4 c114 -3 132 -6 177 -29 55 -29 115 -98 135
-157 7 -20 14 -95 17 -165 l5 -128 -144 7 -144 7 1 -234 0 -234 -62 -3 -61 -3
-6 38 c-3 21 -8 61 -12 88 -4 28 -15 74 -25 103 l-18 53 30 -22 c16 -11 36
-22 44 -23 8 -1 18 -5 21 -9 4 -4 20 -7 36 -7 41 0 35 22 -18 69 -35 31 -42
41 -28 41 10 0 30 9 44 20 24 18 24 19 5 25 -11 4 -31 11 -45 16 -15 6 -38 6
-57 0 -33 -10 -33 -9 -33 25 0 45 -23 45 -44 0 -15 -33 -18 -34 -46 -23 -32
12 -40 41 -16 50 10 4 13 1 10 -7 -3 -8 0 -17 7 -22 8 -5 10 -3 4 6 -6 9 -4
12 7 8 10 -4 14 0 13 15 -1 12 5 25 14 29 9 4 -8 7 -37 6 l-54 -2 -57 80 c-31
43 -80 110 -109 148 l-52 69 0 -150 c0 -168 2 -163 -71 -163 l-39 0 0 240 0
240 63 0 62 0 110 -148z m1185 -127 l0 -276 -37 6 c-77 13 -73 6 -73 115 0
110 0 110 -77 110 -85 0 -145 -52 -159 -137 l-6 -41 -42 5 c-73 8 -69 0 -64
146 5 154 20 199 91 270 61 61 107 75 250 76 l117 1 0 -275z m420 204 l0 -72
-136 4 c-150 4 -164 -1 -151 -53 6 -23 15 -27 69 -37 114 -20 190 -90 238
-217 19 -52 46 -201 38 -210 -3 -2 -85 16 -184 40 -98 24 -199 48 -224 52
l-45 9 -3 63 c-4 74 -16 72 172 37 74 -14 138 -25 141 -25 4 0 -6 18 -22 40
-29 41 -93 80 -131 80 -78 0 -162 96 -162 184 0 64 48 148 94 166 12 5 85 9
164 9 l142 1 0 -71z m-1501 -559 c-20 -18 -31 -39 -35 -68 -7 -48 7 -55 47
-23 l24 18 3 -36 c1 -20 10 -51 18 -70 l17 -35 17 22 c10 12 21 41 25 65 10
58 20 28 30 -90 l7 -93 -111 0 -111 0 0 154 c0 127 3 157 16 170 8 9 12 16 7
16 -4 0 -2 4 6 9 7 5 25 4 41 -2 l27 -10 -28 -27z"/>
<path d="M2332 2288 l3 -63 69 -3 69 -3 -6 43 c-8 56 -43 88 -98 88 l-40 0 3
-62z"/>
<path d="M2121 1923 c0 -83 1 -87 16 -65 27 39 42 27 45 -35 l3 -58 89 -3 89
-3 -5 70 c-4 57 -11 78 -33 107 -41 54 -81 74 -147 74 l-58 0 1 -87z"/>
<path d="M2693 1985 c-28 -12 -83 -77 -83 -98 0 -4 15 0 33 10 19 10 64 18
115 21 l82 5 0 38 0 39 -57 0 c-32 -1 -72 -7 -90 -15z"/>
</g>
</svg>
